<svg class="close-search" width="40" height="40" xmlns="http://www.w3.org/2000/svg" viewBox="0 0 80 80"><defs><style>.cls-1{fill:#2b2a2a;}.cls-2{fill:#fff;}</style></defs><circle class="cls-1" cx="40" cy="40" r="40"/><path class="cls-2" d="M47.34,40l11-11a3.46,3.46,0,0,0,0-4.89L55.9,21.65a3.46,3.46,0,0,0-4.89,0l-11,11-11-11a3.46,3.46,0,0,0-4.89,0L21.65,24.1a3.46,3.46,0,0,0,0,4.89l11,11-11,11a3.46,3.46,0,0,0,0,4.89l2.45,2.45a3.46,3.46,0,0,0,4.89,0l11-11,11,11a3.46,3.46,0,0,0,4.89,0l2.45-2.45a3.46,3.46,0,0,0,0-4.89Z"/></svg>